<mxfile host="app.diagrams.net" modified="2021-11-26T02:13:19.173Z" agent="5.0 (Macintosh; Intel Mac OS X 10_14_6) AppleWebKit/537.36 (KHTML, like Gecko) Chrome/96.0.4664.55 Safari/537.36" etag="pm_7L80AgdXsaBC0JTn2" version="15.8.5" type="github">
  <diagram id="prtHgNgQTEPvFCAcTncT" name="Page-1">
    <mxGraphModel dx="1426" dy="771" grid="1" gridSize="10" guides="1" tooltips="1" connect="1" arrows="1" fold="1" page="1" pageScale="1" pageWidth="827" pageHeight="1169" math="0" shadow="0">
      <root>
        <mxCell id="0" />
        <mxCell id="1" parent="0" />
        <mxCell id="3ajnrQTLj9lgJK8TwC4H-1" value="" style="rounded=0;whiteSpace=wrap;html=1;" vertex="1" parent="1">
          <mxGeometry x="90" y="180" width="180" height="380" as="geometry" />
        </mxCell>
        <mxCell id="3ajnrQTLj9lgJK8TwC4H-2" value="产品化" style="text;html=1;align=center;verticalAlign=middle;resizable=0;points=[];autosize=1;strokeColor=none;fillColor=none;" vertex="1" parent="1">
          <mxGeometry x="150" y="140" width="50" height="20" as="geometry" />
        </mxCell>
        <mxCell id="3ajnrQTLj9lgJK8TwC4H-3" value="所有routes" style="rounded=0;whiteSpace=wrap;html=1;fillColor=#fff2cc;strokeColor=#d6b656;" vertex="1" parent="1">
          <mxGeometry x="130" y="210" width="100" height="50" as="geometry" />
        </mxCell>
        <mxCell id="3ajnrQTLj9lgJK8TwC4H-4" value="components" style="rounded=0;whiteSpace=wrap;html=1;fillColor=#fff2cc;strokeColor=#d6b656;" vertex="1" parent="1">
          <mxGeometry x="130" y="300" width="100" height="50" as="geometry" />
        </mxCell>
        <mxCell id="3ajnrQTLj9lgJK8TwC4H-5" value="utils" style="rounded=0;whiteSpace=wrap;html=1;fillColor=#fff2cc;strokeColor=#d6b656;" vertex="1" parent="1">
          <mxGeometry x="130" y="390" width="100" height="50" as="geometry" />
        </mxCell>
        <mxCell id="3ajnrQTLj9lgJK8TwC4H-6" value="store" style="rounded=0;whiteSpace=wrap;html=1;fillColor=#fff2cc;strokeColor=#d6b656;" vertex="1" parent="1">
          <mxGeometry x="130" y="480" width="100" height="50" as="geometry" />
        </mxCell>
        <mxCell id="3ajnrQTLj9lgJK8TwC4H-7" value="" style="rounded=0;whiteSpace=wrap;html=1;" vertex="1" parent="1">
          <mxGeometry x="460" y="180" width="180" height="210" as="geometry" />
        </mxCell>
        <mxCell id="3ajnrQTLj9lgJK8TwC4H-8" value="二开项目" style="text;html=1;align=center;verticalAlign=middle;resizable=0;points=[];autosize=1;strokeColor=none;fillColor=none;" vertex="1" parent="1">
          <mxGeometry x="515" y="140" width="60" height="20" as="geometry" />
        </mxCell>
        <mxCell id="3ajnrQTLj9lgJK8TwC4H-13" value="" style="endArrow=classic;html=1;rounded=0;" edge="1" parent="1">
          <mxGeometry width="50" height="50" relative="1" as="geometry">
            <mxPoint x="230" y="234.5" as="sourcePoint" />
            <mxPoint x="490" y="235" as="targetPoint" />
            <Array as="points">
              <mxPoint x="360" y="235" />
            </Array>
          </mxGeometry>
        </mxCell>
        <mxCell id="3ajnrQTLj9lgJK8TwC4H-14" value="产品化+二开routes" style="rounded=0;whiteSpace=wrap;html=1;fillColor=#fff2cc;strokeColor=#d6b656;" vertex="1" parent="1">
          <mxGeometry x="490" y="210" width="120" height="50" as="geometry" />
        </mxCell>
        <mxCell id="3ajnrQTLj9lgJK8TwC4H-15" value="二开页面" style="rounded=0;whiteSpace=wrap;html=1;fillColor=#f8cecc;strokeColor=#b85450;" vertex="1" parent="1">
          <mxGeometry x="490" y="300" width="120" height="50" as="geometry" />
        </mxCell>
        <mxCell id="3ajnrQTLj9lgJK8TwC4H-16" value="" style="endArrow=classic;html=1;rounded=0;" edge="1" parent="1">
          <mxGeometry width="50" height="50" relative="1" as="geometry">
            <mxPoint x="230" y="324.5" as="sourcePoint" />
            <mxPoint x="490" y="325" as="targetPoint" />
            <Array as="points">
              <mxPoint x="360" y="325" />
            </Array>
          </mxGeometry>
        </mxCell>
        <mxCell id="3ajnrQTLj9lgJK8TwC4H-18" value="" style="endArrow=classic;html=1;rounded=0;entryX=0;entryY=0.5;entryDx=0;entryDy=0;" edge="1" parent="1" target="3ajnrQTLj9lgJK8TwC4H-15">
          <mxGeometry width="50" height="50" relative="1" as="geometry">
            <mxPoint x="230" y="414.5" as="sourcePoint" />
            <mxPoint x="490" y="415" as="targetPoint" />
            <Array as="points" />
          </mxGeometry>
        </mxCell>
        <mxCell id="3ajnrQTLj9lgJK8TwC4H-19" value="" style="endArrow=classic;html=1;rounded=0;entryX=0;entryY=0.5;entryDx=0;entryDy=0;" edge="1" parent="1" target="3ajnrQTLj9lgJK8TwC4H-15">
          <mxGeometry width="50" height="50" relative="1" as="geometry">
            <mxPoint x="230" y="509.5" as="sourcePoint" />
            <mxPoint x="490" y="420" as="targetPoint" />
            <Array as="points" />
          </mxGeometry>
        </mxCell>
      </root>
    </mxGraphModel>
  </diagram>
</mxfile>
